<svg width="24" height="25" viewBox="0 0 24 25" fill="none" xmlns="http://www.w3.org/2000/svg">
<path d="M12 2.49609C6.48 2.49609 2 6.97609 2 12.4961C2 18.0161 6.48 22.4961 12 22.4961C17.52 22.4961 22 18.0161 22 12.4961C22 6.97609 17.52 2.49609 12 2.49609ZM9.29 16.7861L5.7 13.1961C5.31 12.8061 5.31 12.1761 5.7 11.7861C6.09 11.3961 6.72 11.3961 7.11 11.7861L10 14.6661L16.88 7.78609C17.27 7.39609 17.9 7.39609 18.29 7.78609C18.68 8.17609 18.68 8.80609 18.29 9.19609L10.7 16.7861C10.32 17.1761 9.68 17.1761 9.29 16.7861Z" fill="#388B3E"/>
</svg>
