<svg width="89" height="88" viewBox="0 0 89 88" fill="none" xmlns="http://www.w3.org/2000/svg">
<rect x="0.667969" width="87.9961" height="87.9961" rx="43.998" fill="#44A647" fill-opacity="0.32"/>
<rect x="9.46875" y="8.79883" width="70.3969" height="70.3969" rx="35.1984" fill="#388B3E"/>
<mask id="mask0_6301_12679" style="mask-type:alpha" maskUnits="userSpaceOnUse" x="9" y="8" width="71" height="72">
<circle cx="44.6711" cy="43.9953" r="35.1984" fill="#388B3E"/>
</mask>
<g mask="url(#mask0_6301_12679)">
<path d="M13.3174 42.5617C11.2964 40.2372 11.543 36.7148 13.8673 34.6942C16.1919 32.6735 19.7143 32.9199 21.7349 35.2443L32.0252 47.082C32.9318 48.1248 33.9633 49.0569 35.1458 49.7718C38.0488 51.527 41.6988 53.2493 44.8439 53.2493C47.657 53.2493 50.874 51.8714 53.5992 50.3246C54.8925 49.5905 56.0123 48.5946 56.9879 47.4723L67.6172 35.2444C69.6381 32.9199 73.1605 32.6736 75.4848 34.6942C77.8094 36.7148 78.0557 40.2373 76.0351 42.5617L62.5266 58.1014C60.747 60.1486 59.767 62.7697 59.767 65.4822V79.1931H29.9208V65.8683C29.9208 63.1558 28.9408 60.5346 27.1613 58.4875L13.3174 42.5617Z" fill="#F3FAF3"/>
<circle cx="44.973" cy="39.1625" r="10.1176" fill="#F3FAF3"/>
<path d="M44.2694 2.33004C44.556 1.74936 45.384 1.74936 45.6706 2.33004L48.5494 8.16315C48.6632 8.39374 48.8832 8.55356 49.1376 8.59054L55.5748 9.52592C56.2157 9.61904 56.4715 10.4065 56.0078 10.8585L51.3498 15.399C51.1657 15.5785 51.0817 15.8371 51.1251 16.0905L52.2247 22.5017C52.3342 23.1399 51.6643 23.6266 51.0912 23.3253L45.3335 20.2983C45.1059 20.1787 44.834 20.1787 44.6064 20.2983L38.8488 23.3253C38.2756 23.6266 37.6057 23.1399 37.7152 22.5017L38.8148 16.0905C38.8583 15.8371 38.7743 15.5785 38.5901 15.399L33.9321 10.8585C33.4684 10.4065 33.7243 9.61904 34.3651 9.52592L40.8023 8.59054C41.0568 8.55356 41.2768 8.39374 41.3906 8.16315L44.2694 2.33004Z" fill="#F3FAF3"/>
<path d="M68.4695 14.6546C69.0828 14.4466 69.6683 15.0321 69.4603 15.6453L68.4961 18.4887C68.4135 18.7323 68.456 19.0008 68.6098 19.2069L70.4055 21.6132C70.7928 22.1321 70.4169 22.8699 69.7694 22.8616L66.7672 22.8233C66.5101 22.82 66.2678 22.9434 66.1193 23.1534L64.3857 25.6048C64.0118 26.1334 63.194 26.0039 63.0018 25.3856L62.1106 22.5184C62.0342 22.2729 61.842 22.0806 61.5964 22.0043L58.7293 21.1131C58.1109 20.9208 57.9814 20.103 58.5101 19.7291L60.9615 17.9955C61.1714 17.8471 61.2949 17.6048 61.2916 17.3477L61.2532 14.3455C61.2449 13.698 61.9827 13.3221 62.5017 13.7093L64.908 15.505C65.114 15.6588 65.3826 15.7014 65.6261 15.6188L68.4695 14.6546Z" fill="#F3FAF3"/>
<path d="M20.4807 15.6453C20.2728 15.0321 20.8583 14.4466 21.4715 14.6546L24.3149 15.6188C24.5584 15.7014 24.827 15.6588 25.0331 15.505L27.4394 13.7093C27.9583 13.3221 28.6961 13.698 28.6878 14.3455L28.6494 17.3477C28.6462 17.6048 28.7696 17.8471 28.9795 17.9955L31.4309 19.7291C31.9596 20.103 31.8301 20.9208 31.2117 21.1131L28.3446 22.0043C28.0991 22.0806 27.9068 22.2729 27.8305 22.5184L26.9392 25.3856C26.747 26.0039 25.9292 26.1334 25.5553 25.6048L23.8217 23.1534C23.6732 22.9434 23.431 22.82 23.1738 22.8233L20.1716 22.8616C19.5241 22.8699 19.1482 22.1321 19.5355 21.6132L21.3312 19.2069C21.485 19.0008 21.5275 18.7323 21.445 18.4887L20.4807 15.6453Z" fill="#F3FAF3"/>
</g>
<path d="M44.2733 2.32222C44.5599 1.74155 45.3879 1.74155 45.6745 2.32222L48.5533 8.15534C48.6671 8.38593 48.8871 8.54575 49.1415 8.58273L55.5788 9.51811C56.2196 9.61123 56.4754 10.3987 56.0117 10.8507L51.3537 15.3912C51.1696 15.5706 51.0856 15.8292 51.129 16.0827L52.2286 22.4939C52.3381 23.1321 51.6682 23.6188 51.0951 23.3175L45.3374 20.2905C45.1098 20.1709 44.8379 20.1709 44.6103 20.2905L38.8527 23.3175C38.2795 23.6188 37.6096 23.1321 37.7191 22.4939L38.8187 16.0827C38.8622 15.8292 38.7782 15.5706 38.594 15.3912L33.936 10.8507C33.4723 10.3987 33.7282 9.61123 34.369 9.51811L40.8062 8.58273C41.0607 8.54575 41.2807 8.38593 41.3945 8.15534L44.2733 2.32222Z" fill="#F3FAF3"/>
<path d="M68.4734 14.6467C69.0867 14.4388 69.6722 15.0243 69.4642 15.6375L68.5 18.4809C68.4174 18.7244 68.4599 18.993 68.6137 19.1991L70.4094 21.6054C70.7967 22.1243 70.4208 22.8621 69.7733 22.8538L66.7711 22.8155C66.514 22.8122 66.2717 22.9356 66.1232 23.1456L64.3896 25.5969C64.0157 26.1256 63.1979 25.9961 63.0057 25.3777L62.1145 22.5106C62.0381 22.2651 61.8459 22.0728 61.6003 21.9965L58.7332 21.1052C58.1148 20.913 57.9853 20.0952 58.514 19.7213L60.9654 17.9877C61.1753 17.8392 61.2988 17.597 61.2955 17.3399L61.2571 14.3376C61.2488 13.6902 61.9866 13.3142 62.5056 13.7015L64.9119 15.4972C65.1179 15.651 65.3865 15.6935 65.63 15.611L68.4734 14.6467Z" fill="#F3FAF3"/>
<path d="M20.4846 15.6375C20.2767 15.0243 20.8622 14.4388 21.4754 14.6467L24.3188 15.611C24.5623 15.6935 24.8309 15.651 25.037 15.4972L27.4433 13.7015C27.9622 13.3142 28.7 13.6902 28.6917 14.3377L28.6533 17.3399C28.6501 17.597 28.7735 17.8392 28.9834 17.9877L31.4348 19.7213C31.9635 20.0952 31.834 20.913 31.2156 21.1052L28.3485 21.9965C28.103 22.0728 27.9107 22.2651 27.8344 22.5106L26.9431 25.3778C26.7509 25.9961 25.9331 26.1256 25.5592 25.5969L23.8256 23.1456C23.6771 22.9356 23.4349 22.8122 23.1777 22.8155L20.1755 22.8538C19.5281 22.8621 19.1521 22.1243 19.5394 21.6054L21.3351 19.1991C21.4889 18.993 21.5314 18.7244 21.4489 18.4809L20.4846 15.6375Z" fill="#F3FAF3"/>
</svg>
