<svg width="88" height="88" viewBox="0 0 88 88" fill="none" xmlns="http://www.w3.org/2000/svg">
<rect width="87.9961" height="87.9961" rx="43.998" fill="#44A647" fill-opacity="0.32"/>
<rect x="8.80078" y="8.79883" width="70.3969" height="70.3969" rx="35.1984" fill="#388B3E"/>
<mask id="mask0_6294_12607" style="mask-type:alpha" maskUnits="userSpaceOnUse" x="8" y="7" width="72" height="72">
<circle cx="44.3297" cy="43.2223" r="35.525" fill="#388B3E"/>
</mask>
<g mask="url(#mask0_6294_12607)">
<path fill-rule="evenodd" clip-rule="evenodd" d="M46.8838 34.218C42.817 34.8227 33.8149 34.911 30.3416 30.4264C26 24.8208 25.6153 22.7321 25.6153 19.1049V11.1355C25.597 10.8056 25.7582 9.99188 26.5496 9.37636C27.341 8.76083 28.7479 9.48663 29.3524 9.92646C30.1951 10.934 32.7048 12.9931 36.0022 13.169C40.1241 13.3888 52.1048 16.4109 50.1263 31.7995C50.6209 32.2026 51.786 33.3493 52.4895 34.7123C52.9291 33.9612 53.9843 32.3271 54.6878 31.7995C54.2115 28.9418 54.1932 22.2919 57.9303 18.5548C62.5571 13.928 65.243 13.6143 69.4056 13.1281L69.5263 13.114C72.9117 12.7183 74.7839 11.0806 75.2968 10.3112C75.6632 9.88985 76.6158 9.03618 77.4951 8.99221C78.5943 8.93725 79.5835 10.0363 79.5835 11.4103C79.5835 11.7434 79.619 12.4252 79.6643 13.293C79.8056 16.0046 80.0415 20.5313 79.5835 21.9052C78.979 23.7188 75.9014 32.9496 68.592 33.8309C62.7445 34.536 59.0477 34.3828 57.9303 34.218C57.2255 34.9637 55.9389 36.6473 55.1984 38.5618C61.7821 39.6661 64.709 44.4778 65.3496 46.7473C68.0315 46.3954 69.8378 47.6999 70.4057 48.3961C68.3833 49.3631 65.313 53.6353 64.0306 55.6505C63.1953 53.3098 59.6521 51.4512 57.9849 50.8144H44.4108C42.2345 48.6381 39.1163 47.4895 37.8292 47.1872L39.6907 46.7473C41.3065 42.8641 44.5887 39.4159 49.6204 38.5264C49.048 37.1399 48.1066 35.3481 46.8838 34.218ZM21.3382 79.8444V54.2028C29.7864 45.7546 40.4931 52.7029 41.5522 53.762C42.3995 54.6093 43.3174 54.9709 43.6705 55.0458H57.9849C58.9478 55.4096 60.8735 56.6249 60.8735 58.5763C60.8735 60.5277 58.9478 62.3849 57.9849 63.0696H39.6907C38.5353 63.0696 37.8292 64.225 37.8292 65.4446C37.8292 66.4203 39.0702 67.1778 39.6907 67.4345H57.9849C59.7822 67.4345 61.1302 66.1079 61.5796 65.4446L72.5561 51.8363C72.5561 51.8363 76.6857 50.295 78.3332 51.8363C79.6817 53.0979 79.3896 56.4453 79.3896 56.4453C75.6758 62.0637 67.6425 73.9061 65.2199 76.3287C62.7973 78.7512 58.573 79.6819 56.7637 79.8444H21.3382ZM8.80469 52.3064V53.6443V78.0671C8.80469 79.3942 9.90419 79.8049 10.4539 79.8444H16.931V53.6443C16.931 51.5219 14.6047 50.8802 13.4415 50.8246H10.4539C9.15376 50.8246 8.8127 51.8125 8.80469 52.3064Z" fill="#F3FAF3"/>
</g>
<path d="M30.341 30.3346C33.8143 34.8192 42.8163 34.7309 46.8832 34.1262C48.5979 35.7109 49.7593 38.5969 50.1256 39.8418L54.6871 40.389C55.0389 37.751 56.9954 35.1147 57.9296 34.1262C59.0471 34.291 62.7439 34.4442 68.5914 33.7391C75.9007 32.8578 78.9783 23.627 79.5828 21.8134C80.1874 19.9998 79.5828 12.6924 79.5828 11.3185C79.5828 9.94453 78.5936 8.84545 77.4945 8.90041C76.6151 8.94438 75.6625 9.79805 75.2962 10.2194C74.7832 10.9888 72.911 12.6265 69.5256 13.0222L69.405 13.0363C65.2424 13.5225 62.5564 13.8362 57.9296 18.463C54.1925 22.2001 54.2108 28.85 54.6871 31.7078C53.9837 32.2353 52.9285 33.8694 52.4888 34.6205C51.7854 33.2575 50.6203 32.1108 50.1256 31.7078C52.1041 16.3191 40.1234 13.297 36.0016 13.0772C32.7041 12.9013 30.1944 10.8422 29.3517 9.83467C28.7472 9.39483 27.3403 8.66904 26.5489 9.28456C25.7575 9.90008 25.5963 10.7138 25.6146 11.0437V19.0131C25.6146 22.6403 25.9993 24.729 30.341 30.3346Z" fill="#F3FAF3"/>
</svg>
