<svg width="89" height="88" viewBox="0 0 89 88" fill="none" xmlns="http://www.w3.org/2000/svg">
<rect x="0.332031" width="88" height="88" rx="44" fill="#44A647" fill-opacity="0.32"/>
<rect x="9.17578" y="8.8418" width="70.7375" height="70.7375" rx="35.3687" fill="#388B3E"/>
<mask id="mask0_6294_12615" style="mask-type:alpha" maskUnits="userSpaceOnUse" x="9" y="8" width="71" height="72">
<circle cx="44.5484" cy="44.2125" r="35.3687" fill="#388B3E"/>
</mask>
<g mask="url(#mask0_6294_12615)">
<path fill-rule="evenodd" clip-rule="evenodd" d="M42.5688 41.9258C43.2618 42.3753 44.689 43.4607 44.8531 44.2066C45.1288 43.4464 46.7284 41.9258 47.0278 41.9258V19.328H60.2961C61.3672 19.2244 63.2711 18.5195 62.3175 16.5292C61.3638 14.539 60.0542 12.0372 59.5187 11.0352L62.3175 5.38628C62.5248 4.41898 62.4107 2.48438 60.2961 2.48438H47.0278H44.5399C43.9007 2.5705 42.6222 3.27146 42.6222 5.38628C42.6222 7.5011 42.5866 30.6271 42.5688 41.9258ZM31.2119 43.661C35.3598 43.661 38.7224 40.2984 38.7224 36.1505C38.7224 32.0025 35.3598 28.64 31.2119 28.64C27.064 28.64 23.7014 32.0025 23.7014 36.1505C23.7014 40.2984 27.064 43.661 31.2119 43.661ZM25.0825 60.3815C25.0825 64.5294 21.72 67.892 17.572 67.892C13.4241 67.892 10.0615 64.5294 10.0615 60.3815C10.0615 56.2335 13.4241 52.871 17.572 52.871C21.72 52.871 25.0825 56.2335 25.0825 60.3815ZM52.3656 60.3815C52.3656 64.5294 49.0031 67.892 44.8551 67.892C40.7072 67.892 37.3446 64.5294 37.3446 60.3815C37.3446 56.2335 40.7072 52.871 44.8551 52.871C49.0031 52.871 52.3656 56.2335 52.3656 60.3815ZM72.1349 67.892C76.2829 67.892 79.6454 64.5294 79.6454 60.3815C79.6454 56.2335 76.2829 52.871 72.1349 52.871C67.987 52.871 64.6244 56.2335 64.6244 60.3815C64.6244 64.5294 67.987 67.892 72.1349 67.892ZM17.656 72.3509C14.2754 72.3509 9.55903 69.289 9.55903 69.289C7.56915 70.5961 6.51869 73.2038 6.24219 74.3443V78.1361C6.24219 79.7793 8.45341 80.032 9.55903 79.953H25.753C28.3431 79.953 28.9922 78.7418 28.9931 78.1361V74.3443C28.9931 72.1324 26.833 70.0525 25.753 69.289C25.753 69.289 21.0366 72.3509 17.656 72.3509ZM36.799 69.289C36.799 69.289 41.5153 72.3509 44.896 72.3509C48.2766 72.3509 52.9929 69.289 52.9929 69.289C54.073 70.0525 56.233 72.1324 56.233 74.3443V78.1361C56.2322 78.7418 55.583 79.953 52.9929 79.953H36.799C35.6934 80.032 33.4821 79.7793 33.4821 78.1361V74.3443C33.7586 73.2038 34.8091 70.5961 36.799 69.289ZM72.1724 72.3509C68.7918 72.3509 64.0754 69.289 64.0754 69.289C62.0856 70.5961 61.0351 73.2038 60.7586 74.3443V78.1361C60.7586 79.7793 62.9698 80.032 64.0754 79.953H80.2694C82.8595 79.953 83.5087 78.7418 83.5095 78.1361V74.3443C83.5095 72.1324 81.3494 70.0525 80.2694 69.289C80.2694 69.289 75.553 72.3509 72.1724 72.3509ZM66.0055 36.1505C66.0055 40.2984 62.643 43.661 58.495 43.661C54.3471 43.661 50.9845 40.2984 50.9845 36.1505C50.9845 32.0025 54.3471 28.64 58.495 28.64C62.643 28.64 66.0055 32.0025 66.0055 36.1505ZM20.4168 48.6291C20.6263 47.8437 21.4777 46.0326 23.2072 45.0713C23.2072 45.0713 27.8657 48.341 31.2598 48.341C34.6538 48.341 39.3123 45.0713 39.3123 45.0713C40.1457 45.7122 41.8605 47.3209 42.0529 48.6291C42.0529 48.6291 37.8119 50.363 35.9467 52.4759C34.1292 54.5348 32.9176 58.8225 32.9176 58.8225H29.552C29.552 58.8225 28.4522 54.5317 26.6672 52.4759C24.7881 50.3117 20.4168 48.6291 20.4168 48.6291ZM50.4638 45.0713C48.7343 46.0326 47.8829 47.8437 47.6733 48.6291C47.6733 48.6291 52.0446 50.3117 53.9238 52.4759C55.7087 54.5317 56.8086 58.8225 56.8086 58.8225H60.1742C60.1742 58.8225 61.3858 54.5348 63.2032 52.4759C65.0684 50.363 69.3094 48.6291 69.3094 48.6291C69.1171 47.3209 67.4022 45.7122 66.5688 45.0713C66.5688 45.0713 61.9104 48.341 58.5163 48.341C55.1222 48.341 50.4638 45.0713 50.4638 45.0713Z" fill="#F3FAF3"/>
</g>
<path d="M44.8547 44.2047C44.6906 43.4587 43.2634 42.3733 42.5703 41.9239C42.5881 30.6252 42.6238 7.49914 42.6238 5.38433C42.6238 3.26951 43.9023 2.56855 44.5415 2.48242H47.0293H60.2977C62.4123 2.48242 62.5263 4.41702 62.319 5.38433L59.5202 11.0332C60.0558 12.0353 61.3653 14.537 62.319 16.5272C63.2727 18.5175 61.3688 19.2224 60.2977 19.3261H47.0293V41.9239C46.73 41.9239 45.1304 43.4444 44.8547 44.2047Z" fill="#F3FAF3"/>
</svg>
