<svg width="24" height="26" viewBox="0 0 24 26" fill="none" xmlns="http://www.w3.org/2000/svg">
<g filter="url(#filter0_d_7255_13829)">
<path d="M17 15.8333H7C6.54167 15.8333 6.16667 15.4583 6.16667 15V5C6.16667 4.54167 6.54167 4.16667 7 4.16667H11.1667C11.625 4.16667 12 3.79167 12 3.33333C12 2.875 11.625 2.5 11.1667 2.5H6.16667C5.24167 2.5 4.5 3.25 4.5 4.16667V15.8333C4.5 16.75 5.25 17.5 6.16667 17.5H17.8333C18.75 17.5 19.5 16.75 19.5 15.8333V10.8333C19.5 10.375 19.125 10 18.6667 10C18.2083 10 17.8333 10.375 17.8333 10.8333V15C17.8333 15.4583 17.4583 15.8333 17 15.8333ZM13.6667 3.33333C13.6667 3.79167 14.0417 4.16667 14.5 4.16667H16.6583L9.05 11.775C8.725 12.1 8.725 12.625 9.05 12.95C9.375 13.275 9.9 13.275 10.225 12.95L17.8333 5.34167V7.5C17.8333 7.95833 18.2083 8.33333 18.6667 8.33333C19.125 8.33333 19.5 7.95833 19.5 7.5V3.33333C19.5 2.875 19.125 2.5 18.6667 2.5H14.5C14.0417 2.5 13.6667 2.875 13.6667 3.33333Z" fill="#FAFAFA"/>
</g>
<defs>
<filter id="filter0_d_7255_13829" x="-2" y="0" width="28" height="28" filterUnits="userSpaceOnUse" color-interpolation-filters="sRGB">
<feFlood flood-opacity="0" result="BackgroundImageFix"/>
<feColorMatrix in="SourceAlpha" type="matrix" values="0 0 0 0 0 0 0 0 0 0 0 0 0 0 0 0 0 0 127 0" result="hardAlpha"/>
<feOffset dy="4"/>
<feGaussianBlur stdDeviation="2"/>
<feComposite in2="hardAlpha" operator="out"/>
<feColorMatrix type="matrix" values="0 0 0 0 0 0 0 0 0 0 0 0 0 0 0 0 0 0 0.25 0"/>
<feBlend mode="normal" in2="BackgroundImageFix" result="effect1_dropShadow_7255_13829"/>
<feBlend mode="normal" in="SourceGraphic" in2="effect1_dropShadow_7255_13829" result="shape"/>
</filter>
</defs>
</svg>
