<svg width="100" height="80" viewBox="0 0 100 80" fill="none" xmlns="http://www.w3.org/2000/svg">
<path d="M56.5035 79.9961V55.9402C56.5035 40.8353 60.0466 28.5276 67.1329 19.0171C74.4056 9.32011 85.1282 2.97977 99.3007 -0.00390625V18.1779C92.9604 19.6698 87.9254 22.467 84.1958 26.5695C80.4662 30.4856 78.042 35.2409 76.9231 40.8353H93.7063V79.9961H56.5035ZM0 79.9961V55.9402C0 40.8353 3.54312 28.5276 10.6294 19.0171C17.9021 9.32011 28.5315 2.97977 42.5175 -0.00390625V18.1779C36.1772 19.6698 31.1422 22.467 27.4126 26.5695C23.683 30.4856 21.2587 35.2409 20.1399 40.8353H36.9231V79.9961H0Z" fill="#404040"/>
</svg>
