<svg width="469" height="128" viewBox="0 0 469 128" fill="none" xmlns="http://www.w3.org/2000/svg">
<path d="M47.4062 44.2588H70.2694H93.1327L104.564 24.4602H81.7011H58.8378H35.9697L24.5381 44.2588L35.9697 64.0622L47.4062 44.2588Z" fill="#FAFAFA"/>
<path d="M98.7458 54.1605L87.3141 73.9591H64.4508L53.0861 93.6429L53.0144 93.7624L47.3727 103.54L35.9363 83.7412L41.5828 73.9591L41.6545 73.8395L53.0144 54.1605H98.7458Z" fill="#FAFAFA"/>
<path d="M160.494 68.5277H140.313L137.42 88.8762H125.424L132.376 39.2482H168.765L167.359 49.5897H142.976L141.651 59.1807H161.833L160.494 68.5277Z" fill="#FAFAFA"/>
<path d="M185.968 88.8762H173.977L180.924 39.2482H192.915L185.968 88.8762Z" fill="#FAFAFA"/>
<path d="M245.354 88.8762H236.088L216.323 59.9265L212.269 88.8762H200.378L207.306 39.2482H216.572L236.423 67.7006L240.391 39.2482H252.301L245.354 88.8762Z" fill="#FAFAFA"/>
<path d="M259.745 88.8762L266.692 39.2482H278.688L273.228 78.5346H295.393L293.906 88.8762H259.745Z" fill="#FAFAFA"/>
<path d="M340.465 68.4465H320.288L318.883 78.5346H342.951L341.464 88.8762H305.4L312.347 39.2482H348.411L347.005 49.5897H322.937L321.613 59.0994H341.794L340.465 68.4465Z" fill="#FAFAFA"/>
<path d="M357.423 39.2482H397.36L395.868 49.5897H381.907L376.366 88.8762H364.37L369.911 49.5897H355.936L357.423 39.2482Z" fill="#FAFAFA"/>
<path d="M436.565 68.4465H416.393L414.988 78.5346H439.056L437.569 88.8762H401.51L408.457 39.2482H444.516L443.11 49.5897H419.042L417.718 59.0994H437.899L436.565 68.4465Z" fill="#FAFAFA"/>
</svg>
