<svg width="101" height="125" viewBox="0 0 101 125" fill="none" xmlns="http://www.w3.org/2000/svg">
<path d="M28.9262 24.3166H57.3196H85.713L99.9098 0H71.5163H43.1229H14.7236L0.526855 24.3166L14.7236 48.6391L28.9262 24.3166Z" fill="#FAFAFA"/>
<path d="M92.6839 36.4777L78.4872 60.7943H50.0937L35.9802 84.9699L35.8911 85.1167L28.8848 97.1253L14.6821 72.8087L21.6944 60.7943L21.7835 60.6475L35.8911 36.4777H92.6839Z" fill="#FAFAFA"/>
<path d="M11.4494 118.144H5.16393L4.26302 124.412H0.526855L2.69201 109.125H14.0256L13.5878 112.311H5.99336L5.58088 115.265H11.8664L11.4494 118.144Z" fill="#FAFAFA"/>
<path d="M19.3836 124.412H15.6489L17.8126 109.125H21.5473L19.3836 124.412Z" fill="#FAFAFA"/>
<path d="M37.8796 124.412H34.9937L28.8377 115.495L27.575 124.412H23.8716L26.0293 109.125H28.9152L35.0979 117.889L36.3339 109.125H40.0433L37.8796 124.412Z" fill="#FAFAFA"/>
<path d="M42.3618 124.412L44.5255 109.125H48.2617L46.5611 121.227H53.4646L53.0015 124.412H42.3618Z" fill="#FAFAFA"/>
<path d="M67.5026 118.119H61.2186L60.7808 121.227H68.277L67.8139 124.412H56.5815L58.7452 109.125H69.9775L69.5397 112.311H62.0436L61.6311 115.24H67.9166L67.5026 118.119Z" fill="#FAFAFA"/>
<path d="M72.7842 109.125H85.2227L84.7581 112.311H80.4099L78.684 124.412H74.9478L76.6737 112.311H72.321L72.7842 109.125Z" fill="#FAFAFA"/>
<path d="M97.4335 118.119H91.151L90.7132 121.227H98.2093L97.7462 124.412H86.5154L88.6791 109.125H99.9099L99.4721 112.311H91.9759L91.5635 115.24H97.849L97.4335 118.119Z" fill="#FAFAFA"/>
</svg>
