<svg width="80" height="81" viewBox="0 0 80 81" fill="none" xmlns="http://www.w3.org/2000/svg">
<rect y="0.891602" width="80" height="80" rx="40" fill="#44A647" fill-opacity="0.32"/>
<rect x="8" y="8.8916" width="64" height="64" rx="32" fill="#388B3E"/>
<mask id="mask0_6294_12425" style="mask-type:alpha" maskUnits="userSpaceOnUse" x="8" y="7" width="65" height="66">
<circle cx="40.2969" cy="40.1885" r="32.2969" fill="#388B3E"/>
</mask>
<g mask="url(#mask0_6294_12425)">
<path fill-rule="evenodd" clip-rule="evenodd" d="M54.2544 56.7463C50.4208 59.9826 45.4667 61.9332 40.0569 61.9332C27.8946 61.9332 18.0352 52.0737 18.0352 39.9114C18.0352 27.7491 27.8946 17.8896 40.0569 17.8896C52.2192 17.8896 62.0787 27.7491 62.0787 39.9114C62.0787 44.6719 60.5682 49.0796 58.0003 52.6813L58.1354 52.5462L64.8624 59.2732L65.2726 58.863C66.0869 58.0487 67.4072 58.0487 68.2215 58.863L80.1138 70.7553C80.9281 71.5696 80.9281 72.8899 80.1138 73.7042L75.6439 78.1741C74.8296 78.9885 73.5093 78.9885 72.695 78.1741L60.8027 66.2818C59.9883 65.4675 59.9883 64.1473 60.8027 63.3329L60.8218 63.3138L54.2544 56.7463ZM27.1832 53.5277C28.3817 47.5142 33.689 42.9822 40.0549 42.9822C46.4208 42.9822 51.7281 47.5142 52.9266 53.5277C56.5385 50.1121 58.7921 45.275 58.7921 39.9114C58.7921 29.5632 50.4032 21.1742 40.0549 21.1742C29.7066 21.1742 21.3177 29.5632 21.3177 39.9114C21.3177 45.275 23.5713 50.1121 27.1832 53.5277ZM46.6495 35.0182C46.6495 38.6597 43.6975 41.6118 40.0559 41.6118C36.4144 41.6118 33.4623 38.6597 33.4623 35.0182C33.4623 31.3766 36.4144 28.4245 40.0559 28.4245C43.6975 28.4245 46.6495 31.3766 46.6495 35.0182Z" fill="#F3FAF3"/>
<path d="M41.5197 49.3292C40.8955 47.4081 38.1777 47.4081 37.5535 49.3292L35.8277 54.6407H30.2428C28.2228 54.6407 27.383 57.2255 29.0172 58.4128L33.5354 61.6955L31.8096 67.007C31.1854 68.9281 33.3842 70.5256 35.0184 69.3383L39.5366 66.0556L44.0548 69.3383C45.689 70.5256 47.8878 68.9281 47.2636 67.007L45.5378 61.6955L50.056 58.4128C51.6902 57.2255 50.8504 54.6407 48.8304 54.6407L43.2455 54.6407L41.5197 49.3292Z" fill="#F3FAF3" stroke="#388B3E" stroke-width="2.08519"/>
</g>
</svg>
