<svg width="80" height="81" viewBox="0 0 80 81" fill="none" xmlns="http://www.w3.org/2000/svg">
<rect y="0.891602" width="80" height="80" rx="40" fill="#44A647" fill-opacity="0.32"/>
<rect x="8" y="8.8916" width="64" height="64" rx="32" fill="#388B3E"/>
<mask id="mask0_6294_12508" style="mask-type:alpha" maskUnits="userSpaceOnUse" x="8" y="8" width="64" height="65">
<circle cx="40" cy="40.8916" r="32" fill="#388B3E"/>
</mask>
<g mask="url(#mask0_6294_12508)">
<circle cx="30.1584" cy="26.6262" r="15.2405" fill="#F3FAF3"/>
<mask id="mask1_6294_12508" style="mask-type:alpha" maskUnits="userSpaceOnUse" x="16" y="13" width="28" height="28">
<circle cx="30.2041" cy="26.6758" r="13.501" fill="#404040"/>
</mask>
<g mask="url(#mask1_6294_12508)">
<circle cx="30.1455" cy="23.2861" r="5.04002" fill="#388B3E"/>
<circle cx="30.1419" cy="39.3548" r="9.96225" fill="#388B3E"/>
</g>
<circle cx="50.4163" cy="53.7493" r="15.2405" fill="#F3FAF3"/>
<mask id="mask2_6294_12508" style="mask-type:alpha" maskUnits="userSpaceOnUse" x="36" y="40" width="28" height="28">
<circle cx="50.4619" cy="53.7979" r="13.501" fill="#404040"/>
</mask>
<g mask="url(#mask2_6294_12508)">
<circle cx="50.4033" cy="50.4082" r="5.04002" fill="#388B3E"/>
<circle cx="50.3998" cy="66.4769" r="9.96225" fill="#388B3E"/>
</g>
<path d="M28.5716 55.4059L20.0338 41.9365L11.4961 55.4059H15.0437V61.2238C15.0298 63.8128 16.7165 68.9909 23.5742 68.9909H28.484V65.731H27.0146C25.866 65.731 25.1035 65.1215 25.1035 63.7385V55.4059H28.5716Z" fill="#F3FAF3"/>
<path d="M52.0261 25.0404L60.5638 38.5098L69.1016 25.0404L65.554 25.0404L65.554 19.2225C65.5678 16.6335 63.8812 11.4554 57.0234 11.4554L52.1136 11.4554L52.1136 14.7153L53.5831 14.7153C54.7317 14.7153 55.4942 15.3247 55.4942 16.7077L55.4942 25.0404L52.0261 25.0404Z" fill="#F3FAF3"/>
</g>
<path d="M28.5599 55.3941L20.0221 41.9248L11.4844 55.3941H15.032V61.2121C15.0181 63.8011 16.7048 68.9791 23.5625 68.9791H28.4723V65.7193H27.0029C25.8543 65.7193 25.0917 65.1098 25.0917 63.7268V55.3941H28.5599Z" fill="#F3FAF3"/>
<path d="M51.9792 25.0336L60.5169 38.5029L69.0547 25.0336L65.5071 25.0336L65.5071 19.2157C65.521 16.6267 63.8343 11.4486 56.9766 11.4486L52.0667 11.4486L52.0667 14.7084L53.5362 14.7084C54.6848 14.7084 55.4473 15.3179 55.4473 16.7009L55.4473 25.0336L51.9792 25.0336Z" fill="#F3FAF3"/>
</svg>
