<svg width="80" height="81" viewBox="0 0 80 81" fill="none" xmlns="http://www.w3.org/2000/svg">
<rect y="0.891602" width="80" height="80" rx="40" fill="#44A647" fill-opacity="0.32"/>
<rect x="8" y="8.8916" width="64" height="64" rx="32" fill="#388B3E"/>
<mask id="mask0_6262_12168" style="mask-type:alpha" maskUnits="userSpaceOnUse" x="8" y="8" width="64" height="65">
<circle cx="40" cy="40.8916" r="32" fill="#388B3E"/>
</mask>
<g mask="url(#mask0_6262_12168)">
<path fill-rule="evenodd" clip-rule="evenodd" d="M38.2113 38.8225C38.8384 39.2291 40.1296 40.2111 40.2781 40.8861C40.5275 40.1982 41.9748 38.8225 42.2456 38.8225V18.377H54.2502C55.2193 18.2832 56.9418 17.6455 56.079 15.8448C55.2162 14.0441 54.0313 11.7807 53.5468 10.8741L56.079 5.7632C56.2666 4.88803 56.1634 3.1377 54.2502 3.1377H42.2456H39.9947C39.4164 3.21562 38.2597 3.84982 38.2597 5.7632C38.2597 7.67659 38.2274 28.6 38.2113 38.8225ZM27.9373 40.3924C31.6901 40.3924 34.7324 37.3501 34.7324 33.5972C34.7324 29.8443 31.6901 26.802 27.9373 26.802C24.1844 26.802 21.1421 29.8443 21.1421 33.5972C21.1421 37.3501 24.1844 40.3924 27.9373 40.3924ZM22.3916 55.52C22.3916 59.2728 19.3493 62.3151 15.5964 62.3151C11.8435 62.3151 8.80124 59.2728 8.80124 55.52C8.80124 51.7671 11.8435 48.7248 15.5964 48.7248C19.3493 48.7248 22.3916 51.7671 22.3916 55.52ZM47.0733 55.52C47.0733 59.2728 44.031 62.3151 40.2781 62.3151C36.5252 62.3151 33.4829 59.2728 33.4829 55.52C33.4829 51.7671 36.5252 48.7248 40.2781 48.7248C44.031 48.7248 47.0733 51.7671 47.0733 55.52ZM64.9598 62.3151C68.7127 62.3151 71.755 59.2728 71.755 55.52C71.755 51.7671 68.7127 48.7248 64.9598 48.7248C61.2069 48.7248 58.1646 51.7671 58.1646 55.52C58.1646 59.2728 61.2069 62.3151 64.9598 62.3151ZM15.6704 66.3499C12.6118 66.3499 8.34467 63.5796 8.34467 63.5796C6.54432 64.7622 5.59391 67.1216 5.34375 68.1534V71.5841C5.34375 73.0707 7.34437 73.2994 8.34467 73.2279H22.9962C25.3396 73.2279 25.9269 72.132 25.9277 71.5841V68.1534C25.9277 66.1522 23.9734 64.2704 22.9962 63.5796C22.9962 63.5796 18.7291 66.3499 15.6704 66.3499ZM32.9879 63.5796C32.9879 63.5796 37.255 66.3499 40.3136 66.3499C43.3722 66.3499 47.6394 63.5796 47.6394 63.5796C48.6166 64.2704 50.5709 66.1522 50.5709 68.1534V71.5841C50.5701 72.132 49.9828 73.2279 47.6394 73.2279H32.9879C31.9875 73.2994 29.9869 73.0707 29.9869 71.5841V68.1534C30.2371 67.1216 31.1875 64.7622 32.9879 63.5796ZM64.9953 66.3499C61.9367 66.3499 57.6695 63.5796 57.6695 63.5796C55.8692 64.7622 54.9188 67.1216 54.6686 68.1534V71.5841C54.6686 73.0707 56.6692 73.2994 57.6695 73.2279H72.3211C74.6645 73.2279 75.2518 72.132 75.2526 71.5841V68.1534C75.2526 66.1522 73.2982 64.2704 72.3211 63.5796C72.3211 63.5796 68.0539 66.3499 64.9953 66.3499ZM59.4141 33.5972C59.4141 37.3501 56.3718 40.3924 52.6189 40.3924C48.8661 40.3924 45.8238 37.3501 45.8238 33.5972C45.8238 29.8443 48.8661 26.802 52.6189 26.802C56.3718 26.802 59.4141 29.8443 59.4141 33.5972ZM18.1681 44.8875C18.3577 44.177 19.128 42.5384 20.6928 41.6686C20.6928 41.6686 24.9075 44.6269 27.9783 44.6269C31.0491 44.6269 35.2639 41.6686 35.2639 41.6686C36.0179 42.2484 37.5694 43.704 37.7434 44.8875C37.7434 44.8875 33.9064 46.4563 32.2189 48.368C30.5745 50.2308 29.4783 54.1101 29.4783 54.1101H26.4333C26.4333 54.1101 25.4382 50.2279 23.8232 48.368C22.1231 46.4099 18.1681 44.8875 18.1681 44.8875ZM45.3531 41.6686C43.7883 42.5384 43.018 44.177 42.8284 44.8875C42.8284 44.8875 46.7834 46.4099 48.4835 48.368C50.0985 50.2279 51.0936 54.1101 51.0936 54.1101H54.1386C54.1386 54.1101 55.2348 50.2308 56.8792 48.368C58.5667 46.4563 62.4037 44.8875 62.4037 44.8875C62.2297 43.704 60.6782 42.2484 59.9242 41.6686C59.9242 41.6686 55.7094 44.6269 52.6386 44.6269C49.5678 44.6269 45.3531 41.6686 45.3531 41.6686Z" fill="#F3FAF3"/>
</g>
<path d="M40.2777 40.8861C40.1293 40.2111 38.838 39.2291 38.2109 38.8225C38.2271 28.6 38.2593 7.67659 38.2593 5.7632C38.2593 3.84982 39.416 3.21562 39.9944 3.1377H42.2452H54.2498C56.163 3.1377 56.2662 4.88803 56.0786 5.7632L53.5464 10.8741C54.031 11.7807 55.2158 14.0441 56.0786 15.8448C56.9415 17.6455 55.2189 18.2832 54.2498 18.377H42.2452V38.8225C41.9744 38.8225 40.5272 40.1982 40.2777 40.8861Z" fill="#F3FAF3"/>
</svg>
