<svg width="80" height="81" viewBox="0 0 80 81" fill="none" xmlns="http://www.w3.org/2000/svg">
<rect y="0.891602" width="80" height="80" rx="40" fill="#44A647" fill-opacity="0.32"/>
<rect x="8" y="8.8916" width="64" height="64" rx="32" fill="#388B3E"/>
<mask id="mask0_6262_12235" style="mask-type:alpha" maskUnits="userSpaceOnUse" x="8" y="8" width="64" height="65">
<circle cx="40" cy="40.8916" r="32" fill="#388B3E"/>
</mask>
<g mask="url(#mask0_6262_12235)">
<path fill-rule="evenodd" clip-rule="evenodd" d="M38.1012 7.4942C38.1012 6.36158 39.0194 5.44336 40.1521 5.44336C41.2847 5.44336 42.2029 6.36158 42.2029 7.4942V11.1541C42.2029 12.2867 41.2847 13.2049 40.1521 13.2049C39.0194 13.2049 38.1012 12.2867 38.1012 11.1541V7.4942ZM52.1647 27.8856C52.1647 30.5039 51.5454 32.9077 50.1226 34.8817L44.6457 45.8711H41.8131V36.7083C43.4135 36.0532 44.5418 34.4799 44.5418 32.6435C44.5418 30.2202 42.5754 28.2549 40.1521 28.2549C37.7266 28.2549 35.7624 30.2202 35.7624 32.6435C35.7624 33.1178 35.8382 33.5747 35.9767 34.0024C36.0049 34.089 36.0374 34.1746 36.072 34.259L36.1825 34.52C36.2475 34.6564 36.3189 34.7885 36.3969 34.9163C36.882 35.7187 37.6183 36.3521 38.4954 36.7105V45.8711H35.5198L30.1881 34.8817C29.5275 33.9309 29.023 32.8449 28.6786 31.6852C28.3213 30.4746 28.1394 29.185 28.1394 27.8856C28.1394 21.2513 33.5166 15.873 40.1521 15.873C46.7875 15.873 52.1647 21.2513 52.1647 27.8856ZM53.9925 12.3896C54.7938 11.5883 56.0932 11.5883 56.8944 12.3896C57.3211 12.8151 57.5203 13.3814 57.4921 13.9391C57.4683 14.4307 57.2691 14.9158 56.8944 15.2904L54.3065 17.8772C53.5052 18.6785 52.2059 18.6785 51.4068 17.8772C50.6055 17.076 50.6055 15.7777 51.4068 14.9764L53.9925 12.3896ZM53.9925 46.0811C54.7938 46.8824 56.0932 46.8824 56.8944 46.0811C57.6957 45.2809 57.6957 43.9816 56.8944 43.1803L54.3065 40.5935C53.5052 39.7922 52.2059 39.7922 51.4068 40.5935C50.6055 41.3947 50.6055 42.693 51.4068 43.4943L53.9925 46.0811ZM23.4097 15.2904C23.0567 14.9385 22.8596 14.4902 22.8185 14.0311C22.7643 13.4442 22.9614 12.8379 23.4097 12.3885C24.211 11.5883 25.5082 11.5883 26.3094 12.3885L28.8974 14.9764C29.3348 15.4128 29.534 15.9975 29.4929 16.5692C29.4756 16.8367 29.4041 17.1009 29.2807 17.3456C29.1854 17.5372 29.0576 17.717 28.8974 17.8772C28.0961 18.6785 26.7967 18.6785 25.9954 17.8772L23.4097 15.2904ZM23.4097 43.1803C22.6084 43.9816 22.6084 45.2809 23.4097 46.0822C23.4985 46.171 23.5938 46.25 23.6934 46.3183C23.7778 46.3767 23.8645 46.4287 23.9554 46.4731C24.722 46.8488 25.6728 46.7189 26.3094 46.0822L28.8974 43.4943C29.6986 42.693 29.6986 41.3947 28.8974 40.5935C28.0961 39.7922 26.7967 39.7922 25.9954 40.5935L23.4097 43.1803ZM18.4959 31.2867C17.3633 31.2867 16.4451 30.3685 16.4451 29.2359C16.4451 28.9284 16.5122 28.6371 16.6335 28.3761C16.7331 28.1607 16.8674 27.9658 17.0298 27.799C17.4023 27.4189 17.922 27.184 18.4959 27.184H22.1558C23.2884 27.184 24.2066 28.1022 24.2066 29.2359C24.2066 30.3685 23.2884 31.2867 22.1558 31.2867H18.4959ZM58.1483 31.2867C57.0157 31.2867 56.0975 30.3685 56.0975 29.2359C56.0975 28.1022 57.0157 27.184 58.1483 27.184H61.8082C62.9408 27.184 63.859 28.1022 63.859 29.2359C63.859 30.3685 62.9408 31.2867 61.8082 31.2867H58.1483ZM15.856 70.003V55.7511C18.0493 54.9037 22.8303 53.0149 24.4088 52.2395C25.9872 51.4641 27.7497 51.495 28.4336 51.6074C28.4336 51.6074 44.4676 54.2936 45.8757 54.5283C47.0022 54.716 46.9513 55.4083 46.7851 55.731C46.3157 56.3373 44.9077 57.7727 43.0302 58.6645C41.2107 59.5288 38.7034 58.9471 37.212 58.601C36.7798 58.5008 36.4329 58.4203 36.2128 58.4005C35.233 58.3125 34.7871 58.9285 34.6991 59.7499C34.6287 60.407 35.6789 61.0699 36.2128 61.3192L53.96 63.476C58.2607 59.6777 66.9616 52.0064 67.3594 51.7082C67.8566 51.3353 69.373 51.1364 70.3923 51.7082C71.2077 52.1656 71.3619 53.3736 71.337 53.9204L69.373 57.4505L70.9641 57.5997C71.936 58.014 73.9081 58.9968 74.0219 59.6134C74.1357 60.2299 73.9745 60.592 73.8797 60.696C73.201 61.1081 70.2585 62.732 63.9179 65.9314C55.9921 69.9307 42.3219 73.7118 40.2132 74.1481C38.5262 74.4971 36.5533 74.2935 35.7777 74.1481L15.856 70.003ZM5.9375 54.5335C5.9375 53.9212 6.43392 53.4247 7.0463 53.4247H12.0359C12.6482 53.4247 13.1447 53.9212 13.1447 54.5335V72.2743C13.1447 72.8866 12.6482 73.383 12.0359 73.383H7.0463C6.43392 73.383 5.9375 72.8866 5.9375 72.2743V54.5335Z" fill="#F3FAF3"/>
</g>
<mask id="mask1_6262_12235" style="mask-type:alpha" maskUnits="userSpaceOnUse" x="43" y="49" width="32" height="24">
<path d="M60.5117 69.0868L47.1055 72.0429L43.7578 70.2614V66.1896L45.4003 60.4733H53.8572L61.5311 54.6005L65.9945 49.589L70.6928 49.1973L72.807 52.0945L72.3372 56.4012L74.608 58.4372V60.9431L60.5117 69.0868Z" fill="#D9D9D9"/>
</mask>
<g mask="url(#mask1_6262_12235)">
<path d="M15.8555 55.7507V70.0026L35.7771 74.1476C36.5527 74.293 38.5257 74.4966 40.2126 74.1476C42.3213 73.7113 55.9915 69.9302 63.9173 65.931C70.258 62.7316 73.2005 61.1076 73.8791 60.6956C73.9739 60.5916 74.1351 60.2294 74.0213 59.6129C73.9076 58.9964 71.9354 58.0136 70.9635 57.5992L69.3725 57.4501L71.3364 53.9199C71.3613 53.3731 71.2072 52.1651 70.3918 51.7077C69.3725 51.1359 67.856 51.3349 67.3588 51.7077C66.9611 52.006 58.2601 59.6772 53.9594 63.4755L36.2122 61.3188C35.6784 61.0694 34.6282 60.4065 34.6986 59.7494C34.7866 58.9281 35.2324 58.312 36.2122 58.4C36.4324 58.4198 36.7793 58.5003 37.2114 58.6006C38.7029 58.9466 41.2101 59.5283 43.0297 58.664C44.9071 57.7723 46.3152 56.3368 46.7845 55.7306C46.9508 55.4079 47.0016 54.7156 45.8752 54.5278C44.4671 54.2931 28.433 51.6069 28.433 51.6069C27.7491 51.4946 25.9867 51.4637 24.4082 52.239C22.8298 53.0144 18.0487 54.9032 15.8555 55.7507Z" fill="#F3FAF3"/>
</g>
<path d="M40.1523 5.44336C39.0197 5.44336 38.1015 6.36158 38.1015 7.4942V11.1541C38.1015 12.2867 39.0197 13.2049 40.1523 13.2049C41.2849 13.2049 42.2031 12.2867 42.2031 11.1541V7.4942C42.2031 6.36158 41.2849 5.44336 40.1523 5.44336Z" fill="#F3FAF3"/>
<path d="M50.1228 34.8817C51.5456 32.9077 52.165 30.5039 52.165 27.8856C52.165 21.2513 46.7877 15.873 40.1523 15.873C33.5169 15.873 28.1396 21.2513 28.1396 27.8856C28.1396 29.185 28.3215 30.4746 28.6789 31.6852C29.0232 32.8449 29.5278 33.9309 30.1883 34.8817L35.5201 45.8711H38.4956V36.7105C37.6185 36.3521 36.8822 35.7187 36.3971 34.9163C36.3192 34.7885 36.2477 34.6564 36.1827 34.52L36.0723 34.259C36.0376 34.1746 36.0051 34.089 35.977 34.0024C35.8384 33.5747 35.7626 33.1178 35.7626 32.6435C35.7626 30.2202 37.7268 28.2549 40.1523 28.2549C42.5756 28.2549 44.542 30.2202 44.542 32.6435C44.542 34.4799 43.4137 36.0532 41.8133 36.7083V45.8711H44.646L50.1228 34.8817Z" fill="#F3FAF3"/>
<path d="M53.9928 12.3896C54.794 11.5883 56.0934 11.5883 56.8947 12.3896C57.3213 12.8151 57.5205 13.3814 57.4924 13.9391C57.4686 14.4307 57.2693 14.9158 56.8947 15.2904L54.3068 17.8772C53.5055 18.6785 52.2061 18.6785 51.407 17.8772C50.6057 17.076 50.6057 15.7777 51.407 14.9764L53.9928 12.3896Z" fill="#F3FAF3"/>
<path d="M56.8947 46.0811C56.0934 46.8824 54.794 46.8824 53.9928 46.0811L51.407 43.4943C50.6057 42.693 50.6057 41.3947 51.407 40.5935C52.2061 39.7922 53.5055 39.7922 54.3068 40.5935L56.8947 43.1803C57.696 43.9816 57.696 45.2809 56.8947 46.0811Z" fill="#F3FAF3"/>
<path d="M23.4099 15.2904C23.0569 14.9385 22.8599 14.4902 22.8187 14.0311C22.7646 13.4442 22.9616 12.8379 23.4099 12.3885C24.2112 11.5883 25.5084 11.5883 26.3097 12.3885L28.8976 14.9764C29.3351 15.4128 29.5343 15.9975 29.4931 16.5692C29.4758 16.8367 29.4044 17.1009 29.2809 17.3456C29.1856 17.5372 29.0579 17.717 28.8976 17.8772C28.0963 18.6785 26.797 18.6785 25.9957 17.8772L23.4099 15.2904Z" fill="#F3FAF3"/>
<path d="M23.4099 46.0822C22.6087 45.2809 22.6087 43.9816 23.4099 43.1803L25.9957 40.5935C26.797 39.7922 28.0963 39.7922 28.8976 40.5935C29.6989 41.3947 29.6989 42.693 28.8976 43.4943L26.3097 46.0822C25.673 46.7189 24.7223 46.8488 23.9557 46.4731C23.8647 46.4287 23.7781 46.3767 23.6936 46.3183C23.594 46.25 23.4987 46.171 23.4099 46.0822Z" fill="#F3FAF3"/>
<path d="M18.4962 31.2867C17.3635 31.2867 16.4453 30.3685 16.4453 29.2359C16.4453 28.9284 16.5124 28.6371 16.6337 28.3761C16.7333 28.1607 16.8676 27.9658 17.03 27.799C17.4025 27.4189 17.9223 27.184 18.4962 27.184H22.156C23.2887 27.184 24.2069 28.1022 24.2069 29.2359C24.2069 30.3685 23.2887 31.2867 22.156 31.2867H18.4962Z" fill="#F3FAF3"/>
<path d="M56.0977 29.2359C56.0977 30.3685 57.0159 31.2867 58.1486 31.2867H61.8085C62.9411 31.2867 63.8593 30.3685 63.8593 29.2359C63.8593 28.1022 62.9411 27.184 61.8085 27.184H58.1486C57.0159 27.184 56.0977 28.1022 56.0977 29.2359Z" fill="#F3FAF3"/>
</svg>
