<svg width="80" height="81" viewBox="0 0 80 81" fill="none" xmlns="http://www.w3.org/2000/svg">
<rect y="0.891602" width="80" height="80" rx="40" fill="#44A647" fill-opacity="0.32"/>
<rect x="8" y="8.8916" width="64" height="64" rx="32" fill="#388B3E"/>
<mask id="mask0_6294_12581" style="mask-type:alpha" maskUnits="userSpaceOnUse" x="8" y="8" width="64" height="65">
<circle cx="40" cy="40.8916" r="32" fill="#388B3E"/>
</mask>
<g mask="url(#mask0_6294_12581)">
<path fill-rule="evenodd" clip-rule="evenodd" d="M20.2812 20.5054C20.2812 17.4801 22.7332 15.0273 25.7593 15.0273H54.986C58.0121 15.0273 60.464 17.4801 60.464 20.5054V64.3259C60.464 67.3511 58.0121 69.8039 54.986 69.8039H25.7593C22.7332 69.8039 20.2812 67.3511 20.2812 64.3259V20.5054ZM27.143 27.0506C27.143 26.1082 27.9062 25.3441 28.8496 25.3441H51.9207C52.445 25.3441 52.9139 25.5795 53.226 25.9504C53.4756 26.2473 53.6272 26.6316 53.6272 27.0506C53.6272 27.4313 53.5024 27.7826 53.292 28.067C52.9799 28.4861 52.4824 28.7571 51.9207 28.7571H28.8496C27.9062 28.7571 27.143 27.993 27.143 27.0506ZM28.4983 32.2094C28.2647 32.2585 28.0489 32.3548 27.8617 32.4885C27.4266 32.7979 27.143 33.3061 27.143 33.8803C27.143 34.8227 27.9062 35.5868 28.8496 35.5868H51.9207C52.864 35.5868 53.6272 34.8227 53.6272 33.8803C53.6272 32.9379 52.864 32.1738 51.9207 32.1738H28.8496C28.7301 32.1738 28.6124 32.1863 28.4983 32.2094ZM27.143 40.7091C27.143 40.3631 27.2465 40.0413 27.423 39.7729C27.7279 39.3093 28.2522 39.0026 28.8496 39.0026H51.9207C52.864 39.0026 53.6272 39.7667 53.6272 40.7091C53.6272 41.6515 52.864 42.4156 51.9207 42.4156H28.8496C27.9062 42.4156 27.143 41.6515 27.143 40.7091ZM28.8496 45.8314C27.9062 45.8314 27.143 46.5955 27.143 47.5379C27.143 48.0514 27.3695 48.5115 27.7279 48.8245C27.892 48.968 28.0846 49.0804 28.2968 49.1526C28.4697 49.2123 28.6552 49.2444 28.8496 49.2444H51.9207C52.864 49.2444 53.6272 48.4803 53.6272 47.5379C53.6272 46.5955 52.864 45.8314 51.9207 45.8314H28.8496ZM27.143 54.3667C27.143 53.4242 27.9062 52.6601 28.8496 52.6601H51.9207C52.4931 52.6601 52.9995 52.9428 53.3098 53.3752C53.5095 53.6543 53.6272 53.9967 53.6272 54.3667C53.6272 54.7108 53.5256 55.0318 53.3508 55.3002C53.0459 55.7656 52.5198 56.0732 51.9207 56.0732H28.8496C27.9062 56.0732 27.143 55.3091 27.143 54.3667ZM28.8496 59.4889C27.9062 59.4889 27.143 60.253 27.143 61.1955C27.143 62.1379 27.9062 62.902 28.8496 62.902H51.9207C52.864 62.902 53.6272 62.1379 53.6272 61.1955C53.6272 60.253 52.864 59.4889 51.9207 59.4889H28.8496Z" fill="#F3FAF3"/>
<rect x="31.3538" y="10.347" width="17.975" height="9.09463" rx="3.0283" fill="#F3FAF3" stroke="#388B3E" stroke-width="2.01887"/>
<path d="M63.157 49.9382L63.1573 49.9374C63.8085 48.5279 64.1705 46.9589 64.1705 45.3083C64.1705 39.1974 59.2159 34.2429 53.1044 34.2429C46.9942 34.2429 42.0398 39.1975 42.0398 45.3083C42.0398 51.4191 46.9942 56.3736 53.1044 56.3736C54.2538 56.3736 55.3644 56.1981 56.4092 55.871C57.2144 55.6197 57.9791 55.279 58.6921 54.8613L61.7208 57.8894C61.3907 58.8549 61.6111 59.9666 62.3807 60.7362L68.4613 66.8168C69.5393 67.8948 71.2878 67.8948 72.3658 66.8168L72.366 66.8166L74.4681 64.7137C75.5461 63.6357 75.5461 61.888 74.4681 60.81L68.3875 54.7294C67.6547 53.9966 66.6132 53.7618 65.6822 54.0254L62.618 50.9607C62.8145 50.6305 62.9944 50.2893 63.157 49.9382ZM51.744 48.5663V48.5662L51.73 48.5664C51.6484 48.5674 51.5685 48.5377 51.5038 48.473L48.7007 45.6699L48.7002 45.6694C48.576 45.5454 48.576 45.3441 48.7002 45.2202L48.7013 45.2191C48.8245 45.0957 49.0265 45.0957 49.1497 45.2191L49.1503 45.2196L50.6831 46.7524C51.2681 47.3375 52.2167 47.3375 52.8019 46.7525L57.2024 42.3527L57.203 42.352C57.3262 42.2287 57.5283 42.2287 57.6515 42.352L57.6526 42.3531C57.7767 42.4771 57.7767 42.6784 57.6526 42.8024L57.6521 42.8028L51.9812 48.473L51.9799 48.4743C51.9264 48.5279 51.8608 48.5574 51.7901 48.5644L51.7896 48.5645C51.781 48.5653 51.7654 48.5663 51.744 48.5663Z" fill="#F3FAF3" stroke="#388B3E" stroke-width="2.3657"/>
</g>
<path fill-rule="evenodd" clip-rule="evenodd" d="M61.1126 51.1231C61.4915 50.601 61.8211 50.0403 62.0953 49.4481C62.6759 48.1914 62.9993 46.7914 62.9993 45.3151C62.9993 39.8575 58.5744 35.4326 53.1161 35.4326C47.6593 35.4326 43.2344 39.8575 43.2344 45.3151C43.2344 50.7727 47.6593 55.1976 53.1161 55.1976C54.1449 55.1976 55.1368 55.0405 56.0686 54.7486C57.0805 54.4329 58.0215 53.9585 58.864 53.3556L63.2073 57.6981C62.6128 58.3157 62.6205 59.2983 63.2288 59.9067L69.3094 65.9872C69.9255 66.6033 70.9251 66.6033 71.5411 65.9872L73.6434 63.8841C74.2595 63.2681 74.2595 62.2693 73.6434 61.6532L67.5629 55.5726C66.9853 54.9951 66.072 54.9589 65.4528 55.464L61.1126 51.1231ZM50.6792 49.3163C50.9764 49.6135 51.3661 49.7606 51.7557 49.756C51.8096 49.756 51.8651 49.7537 51.919 49.7483C52.2517 49.7152 52.5751 49.5712 52.8292 49.3163L58.5001 43.6461C59.0869 43.0601 59.0869 42.1091 58.5001 41.523C57.9149 40.937 56.963 40.937 56.3778 41.523L51.9772 45.9228C51.8541 46.046 51.6544 46.046 51.5312 45.9228L49.9984 44.39C49.4131 43.804 48.4613 43.804 47.8761 44.39C47.2893 44.9761 47.2893 45.9271 47.8761 46.5132L50.6792 49.3163Z" fill="#F3FAF3"/>
</svg>
