<svg width="80" height="81" viewBox="0 0 80 81" fill="none" xmlns="http://www.w3.org/2000/svg">
<rect y="0.891602" width="80" height="80" rx="40" fill="#44A647" fill-opacity="0.32"/>
<rect x="8" y="8.8916" width="64" height="64" rx="32" fill="#388B3E"/>
<mask id="mask0_6262_12133" style="mask-type:alpha" maskUnits="userSpaceOnUse" x="8" y="7" width="65" height="66">
<circle cx="40.2969" cy="40.1885" r="32.2969" fill="#388B3E"/>
</mask>
<g mask="url(#mask0_6262_12133)">
<path fill-rule="evenodd" clip-rule="evenodd" d="M42.6192 32.0037C38.9219 32.5535 30.7379 32.6337 27.5802 28.5567C23.6331 23.4604 23.2834 21.5615 23.2834 18.2639V11.0187C23.2667 10.7188 23.4133 9.97899 24.1327 9.41939C24.8522 8.8598 26.1313 9.51964 26.6809 9.91951C27.447 10.8355 29.7286 12.7075 32.7265 12.8674C36.4737 13.0672 47.3658 15.8148 45.5671 29.805C46.0168 30.1714 47.076 31.214 47.7155 32.4531C48.1152 31.7703 49.0745 30.2847 49.7141 29.805C49.281 27.2069 49.2644 21.1613 52.6619 17.7638C56.8683 13.5574 59.3102 13.2722 63.0945 12.8302L63.2042 12.8174C66.282 12.4577 67.9841 10.9688 68.4504 10.2693C68.7835 9.88623 69.6495 9.11013 70.4489 9.07015C71.4482 9.02019 72.3475 10.0194 72.3475 11.2685C72.3475 11.5713 72.3798 12.1912 72.421 12.9802C72.5494 15.4453 72.7639 19.5607 72.3475 20.8097C71.7979 22.4585 69 30.8505 62.3548 31.6518C57.0387 32.2928 53.6778 32.1535 52.6619 32.0037C52.0211 32.6817 50.8514 34.2124 50.1782 35.9531C56.1635 36.9571 58.8243 41.3315 59.4068 43.3948C61.845 43.0749 63.4871 44.2608 64.0034 44.8937C62.1647 45.7729 59.3734 49.6568 58.2076 51.4889C57.4482 49.3609 54.227 47.6712 52.7113 47.0923H40.3707C38.3921 45.1138 35.5572 44.0695 34.3871 43.7947L36.0794 43.3948C37.5485 39.8643 40.5325 36.7294 45.1072 35.9208C44.5869 34.6603 43.731 33.0312 42.6192 32.0037ZM19.3946 73.4844V50.1728C27.0752 42.4922 36.8089 48.8092 37.7718 49.7721C38.5421 50.5424 39.3766 50.8711 39.6976 50.9392H52.7113C53.5866 51.2699 55.3374 52.3748 55.3374 54.1489C55.3374 55.9229 53.5866 57.6114 52.7113 58.2339H36.0794C35.029 58.2339 34.3871 59.2843 34.3871 60.3931C34.3871 61.2801 35.5153 61.9687 36.0794 62.2022H52.7113C54.3453 62.2022 55.5708 60.9961 55.9793 60.3931L65.9584 48.0213C65.9584 48.0213 69.7127 46.6201 71.2106 48.0213C72.4365 49.1682 72.171 52.2115 72.171 52.2115C68.7946 57.3194 61.4912 68.0857 59.2888 70.2881C57.0864 72.4905 53.246 73.3366 51.6011 73.4844H19.3946ZM8 48.4488V49.665V71.8686C8 73.0751 8.99959 73.4485 9.49939 73.4844H15.3879V49.665C15.3879 47.7355 13.2729 47.1521 12.2155 47.1015H9.49939C8.31735 47.1015 8.00728 47.9997 8 48.4488Z" fill="#F3FAF3"/>
</g>
<path d="M27.5832 28.4688C30.7409 32.5458 38.925 32.4656 42.6223 31.9158C44.1812 33.3565 45.2371 35.9803 45.5701 37.1121L49.7171 37.6095C50.0369 35.2113 51.8156 32.8145 52.6649 31.9158C53.6809 32.0656 57.0417 32.2049 62.3579 31.5639C69.003 30.7626 71.801 22.3706 72.3506 20.7218C72.9002 19.073 72.3506 12.4297 72.3506 11.1806C72.3506 9.9315 71.4512 8.9323 70.452 8.98226C69.6525 9.02224 68.7865 9.79834 68.4534 10.1814C67.9871 10.8809 66.285 12.3698 63.2072 12.7295L63.0976 12.7423C59.3132 13.1843 56.8713 13.4695 52.6649 17.6759C49.2674 21.0734 49.2841 27.119 49.7171 29.7171C49.0776 30.1968 48.1183 31.6824 47.7185 32.3652C47.079 31.1261 46.0198 30.0835 45.5701 29.7171C47.3688 15.7269 36.4768 12.9793 32.7295 12.7795C29.7317 12.6196 27.45 10.7476 26.6839 9.83162C26.1343 9.43175 24.8552 8.77191 24.1358 9.3315C23.4163 9.89109 23.2697 10.6309 23.2864 10.9308V18.176C23.2864 21.4736 23.6361 23.3725 27.5832 28.4688Z" fill="#F3FAF3"/>
</svg>
